<?xml version="1.0" encoding="UTF-8"?>
<svg width="24px" height="24px" viewBox="0 0 24 24" version="1.1" xmlns="http://www.w3.org/2000/svg" xmlns:xlink="http://www.w3.org/1999/xlink">
    <!-- Generator: Sketch 53.1 (72631) - https://sketchapp.com -->
    <title>Path</title>
    <desc>Created with Sketch.</desc>
    <g id="Page-1" stroke="none" stroke-width="1" fill="none" fill-rule="evenodd">
        <g id="Front-end-test" transform="translate(-796.000000, -2101.000000)" fill="#29394A" fill-rule="nonzero">
            <g id="Stacked-Group-2" transform="translate(50.000000, 1849.000000)">
                <g id="Group-12" transform="translate(0.000000, 252.000000)">
                    <g id="Stacked-Group-3" transform="translate(746.000000, 0.000000)">
                        <g id="logo-facebook">
                            <path d="M22,0 L2,0 C0.895,0 0,0.895 0,2 L0,22 C0,23.105 0.895,24 2,24 L13,24 L13,15 L10,15 L10,11 L13,11 L13,8.413 C13,5.313 14.893,3.625 17.659,3.625 C18.984,3.625 20.122,3.724 20.454,3.768 L20.454,7.008 L18.536,7.009 C17.032,7.009 16.741,7.724 16.741,8.772 L16.741,11 L21.181,11 L20.181,15 L16.741,15 L16.741,24 L22,24 C23.105,24 24,23.105 24,22 L24,2 C24,0.895 23.105,0 22,0 Z" id="Path"></path>
                        </g>
                    </g>
                </g>
            </g>
        </g>
    </g>
</svg>