<?xml version="1.0" encoding="UTF-8"?>
<svg width="24px" height="18px" viewBox="0 0 24 18" version="1.1" xmlns="http://www.w3.org/2000/svg" xmlns:xlink="http://www.w3.org/1999/xlink">
    <!-- Generator: Sketch 53.1 (72631) - https://sketchapp.com -->
    <title>Shape</title>
    <desc>Created with Sketch.</desc>
    <g id="Page-1" stroke="none" stroke-width="1" fill="none" fill-rule="evenodd">
        <g id="Front-end-test" transform="translate(-916.000000, -2104.000000)" fill="#29394A" fill-rule="nonzero">
            <g id="Stacked-Group-2" transform="translate(50.000000, 1849.000000)">
                <g id="Group-12" transform="translate(0.000000, 252.000000)">
                    <g id="Stacked-Group-3" transform="translate(746.000000, 0.000000)">
                        <g id="logo-youtube" transform="translate(120.000000, 3.000000)">
                            <path d="M23.8,4.2 C23.8,4.2 23.6,2.5 22.8,1.8 C21.9,0.8 20.9,0.8 20.4,0.8 C17,0.6 12,0.6 12,0.6 L12,0.6 C12,0.6 7,0.6 3.6,0.8 C3.1,0.9 2.1,0.9 1.2,1.8 C0.5,2.5 0.2,4.2 0.2,4.2 C0.2,4.2 0,6.1 0,8.1 L0,9.9 C0,11.8 0.2,13.8 0.2,13.8 C0.2,13.8 0.4,15.5 1.2,16.2 C2.1,17.2 3.3,17.1 3.8,17.2 C5.7,17.4 12,17.4 12,17.4 C12,17.4 17,17.4 20.4,17.1 C20.9,17 21.9,17 22.8,16.1 C23.5,15.4 23.8,13.7 23.8,13.7 C23.8,13.7 24,11.8 24,9.8 L24,8 C24,6.1 23.8,4.2 23.8,4.2 Z M9.5,12.1 L9.5,5.4 L16,8.8 L9.5,12.1 Z" id="Shape"></path>
                        </g>
                    </g>
                </g>
            </g>
        </g>
    </g>
</svg>